<svg width="16" height="15" viewBox="0 0 16 15" fill="none" xmlns="http://www.w3.org/2000/svg">
<path d="M12.2248 14.5205C11.1678 14.5307 10.068 14.0255 9.03254 13.0106L1.17448 5.28191C1.0179 5.12849 0.492004 4.55799 0.328565 3.68717C0.21607 3.08807 0.256425 2.19628 1.08878 1.34764C1.94065 0.478715 2.79967 0.395691 3.37018 0.478137C4.19009 0.597465 4.78308 1.10528 4.99954 1.31794L12.8925 9.07949C13.1159 9.29833 13.6402 9.81209 13.6467 10.5257C13.6509 10.9625 13.4638 11.3765 13.0906 11.7562C12.3887 12.4725 11.4301 12.3713 10.5262 11.4862L2.6472 3.76287C2.44088 3.56084 2.43771 3.2293 2.63992 3.02317C2.84232 2.81668 3.17368 2.8135 3.37999 3.0159L11.259 10.7388C11.954 11.4199 12.2276 11.1423 12.3442 11.0235C12.5162 10.8485 12.6023 10.6845 12.6008 10.5358C12.5983 10.2561 12.3023 9.96603 12.1601 9.82636L4.26669 2.06482C4.12356 1.9244 3.7344 1.58891 3.21964 1.51391C2.73889 1.44389 2.27302 1.63448 1.83608 2.08046C1.42098 2.50322 1.2602 2.97845 1.35675 3.49395C1.44212 3.94787 1.70681 4.33874 1.90721 4.53498L9.76527 12.2637C10.8397 13.3165 12.463 14.2246 14.0869 12.5702C15.675 10.9509 14.7281 9.35559 13.6546 8.30243L6.79909 1.60863C6.5926 1.40678 6.58869 1.07563 6.79017 0.86858C6.99256 0.661719 7.32335 0.657819 7.53022 0.859842L14.3866 7.55504C16.358 9.48846 16.5206 11.5836 14.8339 13.3031C14.0449 14.107 13.1513 14.5117 12.2248 14.5206L12.2248 14.5205Z" fill="#3D0659"/>
</svg>
