<svg width="17" height="15" viewBox="0 0 17 15" fill="none" xmlns="http://www.w3.org/2000/svg">
<path fill-rule="evenodd" clip-rule="evenodd" d="M14.4623 15C15.4323 15 16.2259 14.2063 16.2259 13.2361V8.34307H8.7519V8.81363C8.7519 9.16487 8.46448 9.45257 8.11296 9.45257C7.76143 9.45257 7.47402 9.16485 7.47402 8.81363V8.34307H0V13.2361C0 14.206 0.793659 15 1.76357 15H14.4623ZM9.77338 0C10.3996 0 10.9363 0.249432 11.339 0.652328C11.7489 1.06215 12.014 1.63299 12.0838 2.25472L12.1504 2.84926H14.4624C15.4323 2.84926 16.2259 3.6426 16.2259 4.61283V7.23789H1.55433e-05V4.61283C1.55433e-05 3.64292 0.793675 2.84926 1.76358 2.84926H4.07555L4.14214 2.25472C4.21164 1.63299 4.47707 1.06215 4.8869 0.652328C5.28964 0.249593 5.82618 0 6.45257 0H9.77338ZM9.77338 1.10246H6.45293C6.13937 1.10246 5.86965 1.22825 5.66647 1.43155C5.43103 1.667 5.27772 2.00318 5.23602 2.37517L5.18297 2.84912H11.0433L10.9902 2.37517C10.9486 2.00302 10.7952 1.66686 10.5598 1.43155C10.3565 1.22841 10.0869 1.10246 9.77333 1.10246H9.77338Z" fill="#505050"/>
</svg>
