<svg width="17" height="15" viewBox="0 0 17 15" fill="none" xmlns="http://www.w3.org/2000/svg">
<path d="M4.96816 0.000340002C4.83936 0.0146614 4.71986 0.0825893 4.63302 0.190987C4.54618 0.299385 4.49806 0.440496 4.49818 0.586744V2.85507H0.523304C0.505402 2.85388 0.487385 2.85388 0.469366 2.85507C0.340799 2.86952 0.221648 2.93758 0.134937 3.04598C0.0483333 3.15437 0.000442462 3.29522 0.000558521 3.44133V4.83011C1.37994 7.198 3.29991 8.23943 6.08622 8.64373V8.03896C6.08564 7.88208 6.14062 7.73138 6.23873 7.6205C6.33696 7.5096 6.47018 7.44746 6.60896 7.44811H10.0613C10.1996 7.44838 10.332 7.51092 10.4295 7.62168C10.5271 7.73257 10.5816 7.88275 10.581 8.03896V8.64138C13.5078 8.2057 14.8889 7.37715 16.6667 5.00637V3.44164C16.6662 3.28608 16.6112 3.13721 16.5138 3.02738C16.4164 2.91754 16.2846 2.85566 16.1469 2.85539H12.1688V0.587071C12.1682 0.431506 12.1132 0.282641 12.0159 0.172679C11.9185 0.0628384 11.7866 0.00108331 11.6491 0.000689775H5.02149C5.00383 -0.000229925 4.98616 -0.000229925 4.9686 0.000689775L4.96816 0.000340002ZM5.54078 1.17759H11.1259V2.85503H5.54078V1.17759ZM0.000299694 6.72008V14.4126C0.000532199 14.5689 0.055865 14.7187 0.153861 14.8288C0.251972 14.939 0.384723 15.0007 0.523048 15H16.1464C16.2841 14.9997 16.4162 14.9377 16.5136 14.8276C16.611 14.7175 16.6659 14.5683 16.6661 14.4125V6.72612C15.0071 8.58634 13.3245 9.43538 10.5805 9.83584V10.7418C10.58 10.7615 10.5786 10.7811 10.5764 10.8005C10.5749 10.8201 10.5726 10.8397 10.5693 10.8591C10.5413 11.0149 10.4588 11.1513 10.3404 11.2374C10.2572 11.2986 10.1601 11.3317 10.0607 11.3328H6.60842C6.53809 11.3324 6.46858 11.3161 6.40406 11.2846C6.35582 11.2616 6.31083 11.2305 6.27073 11.1926C6.25759 11.1798 6.24503 11.1664 6.23318 11.1522C6.22097 11.1381 6.20946 11.1231 6.19854 11.1074C6.19075 11.0967 6.18331 11.0855 6.17622 11.0741C6.17482 11.0714 6.17343 11.0688 6.17215 11.0661C6.16866 11.06 6.16517 11.0538 6.16192 11.0477C6.15506 11.0349 6.14855 11.0218 6.14262 11.0085C6.13472 10.9909 6.12751 10.9729 6.12123 10.9545C6.12088 10.9537 6.12054 10.9531 6.12019 10.9523C6.11484 10.9364 6.11007 10.9203 6.10601 10.904C6.10449 10.8983 6.10322 10.8925 6.10194 10.8867C6.09926 10.8753 6.09682 10.8637 6.09473 10.8521C6.09206 10.8351 6.09008 10.8177 6.08868 10.8004C6.08682 10.7809 6.08578 10.7614 6.08566 10.7418V9.84044C3.55825 9.48754 1.52394 8.56007 0 6.72033L0.000299694 6.72008ZM7.12841 8.6251V10.153H9.53795V8.6251H7.12841Z" fill="#505050"/>
</svg>
