<svg width="13" height="18" viewBox="0 0 13 18" fill="none" xmlns="http://www.w3.org/2000/svg">
<path d="M1.50048 7.11284C1.50048 6.57636 1.78674 6.08059 2.25132 5.81231C2.71589 5.54415 3.28842 5.54415 3.753 5.81231C4.21757 6.08063 4.50383 6.5764 4.50383 7.11284H6.00551V4.86033C5.46903 4.86033 4.97326 4.57407 4.70497 4.10949C4.43682 3.64491 4.43682 3.07239 4.70497 2.60781C4.9733 2.14324 5.46907 1.85697 6.00551 1.85697V0.00047186C5.88802 0.00717578 5.77171 0.00734337 5.65305 0.0204157C4.20501 0.196562 2.85972 0.859596 1.83802 1.90069C0.816324 2.94178 0.178798 4.29934 0.0301315 5.75056C-0.0134428 6.20372 -0.00975677 6.66027 0.041193 7.11279L1.50048 7.11284Z" fill="#505050"/>
<path d="M8.25803 7.11284C8.25803 6.57636 8.54428 6.08059 9.00886 5.81231C9.47344 5.54415 10.046 5.54415 10.5105 5.81231C10.9751 6.08063 11.2614 6.5764 11.2614 7.11284H12.7227C12.7493 6.87435 12.7629 6.63467 12.7631 6.39487C12.7661 4.76396 12.1458 3.1936 11.0293 2.00482C9.91276 0.816226 8.38427 0.0990678 6.75637 0V2.23222C6.75637 2.33177 6.71681 2.42731 6.64642 2.4977C6.57603 2.56809 6.4805 2.60764 6.38095 2.60764H6.00553C5.7372 2.60764 5.48934 2.75077 5.35526 2.98306C5.22118 3.21535 5.22118 3.50161 5.35526 3.7339C5.48934 3.96619 5.73721 4.10932 6.00553 4.10932H6.38095C6.4805 4.10932 6.57603 4.14887 6.64642 4.21926C6.71681 4.28965 6.75637 4.38518 6.75637 4.48474V7.11267L8.25803 7.11284Z" fill="#505050"/>
<path d="M10.886 7.86368C10.7864 7.86368 10.6909 7.82413 10.6205 7.75374C10.5501 7.68335 10.5105 7.58782 10.5105 7.48826V7.11284C10.5105 6.84452 10.3674 6.59665 10.1351 6.46258C9.90283 6.3285 9.61657 6.3285 9.38428 6.46258C9.152 6.59665 9.00886 6.84453 9.00886 7.11284V7.48826C9.00886 7.58782 8.96931 7.68335 8.89892 7.75374C8.82853 7.82413 8.733 7.86368 8.63345 7.86368H6.75635V9.36536C6.75635 9.46491 6.7168 9.56045 6.6464 9.63084C6.57601 9.70123 6.48048 9.74078 6.38093 9.74078H6.00551C5.73719 9.74078 5.48932 9.88391 5.35524 10.1162C5.22116 10.3485 5.22116 10.6347 5.35524 10.867C5.48932 11.0993 5.7372 11.2425 6.00551 11.2425H6.38093C6.48048 11.2425 6.57601 11.282 6.6464 11.3524C6.71679 11.4228 6.75635 11.5183 6.75635 11.6179V13.2913H9.57199V13.2618C9.56898 12.5112 9.89797 11.7975 10.4708 11.3123C11.5319 10.422 12.2763 9.21217 12.5926 7.86366L10.886 7.86368Z" fill="#505050"/>
<path d="M3.18965 13.2912H6.0053V11.9931C5.46881 11.9931 4.97304 11.7069 4.70476 11.2423C4.4366 10.7777 4.4366 10.2052 4.70476 9.74061C4.97308 9.27603 5.46885 8.98977 6.0053 8.98977V7.86351H4.1282C4.02865 7.86351 3.93311 7.82396 3.86272 7.75357C3.79233 7.68318 3.75278 7.58764 3.75278 7.48809V7.11267C3.75278 6.84435 3.60965 6.59648 3.37736 6.4624C3.14507 6.32832 2.85881 6.32832 2.62652 6.4624C2.39423 6.59648 2.2511 6.84436 2.2511 7.11267V7.48809C2.2511 7.58764 2.21155 7.68318 2.14116 7.75357C2.07077 7.82396 1.97524 7.86351 1.87568 7.86351H0.16935C0.489126 9.22725 1.24648 10.4487 2.32602 11.3415C2.88464 11.8216 3.20106 12.5251 3.18965 13.2617V13.2912Z" fill="#505050"/>
<path d="M3.18965 15.3176C3.18965 15.336 3.192 15.3539 3.1925 15.3722H9.56905C9.56938 15.3538 9.5719 15.336 9.5719 15.3176V14.0128H3.18977L3.18965 15.3176Z" fill="#505050"/>
<path d="M5.87723 18H6.88498H6.88481C7.45613 18.0002 8.01274 17.8183 8.47363 17.4808C8.93469 17.1432 9.27608 16.6676 9.44839 16.1229H3.31382C3.48611 16.6676 3.82753 17.1432 4.28858 17.4808C4.74947 17.8183 5.30608 18.0001 5.8774 18H5.87723Z" fill="#505050"/>
</svg>
