<svg width="17" height="15" viewBox="0 0 17 15" fill="none" xmlns="http://www.w3.org/2000/svg">
<path fill-rule="evenodd" clip-rule="evenodd" d="M16.9999 6.44879H0.000320271V14.6007C0.00244816 14.8211 0.166919 14.9988 0.369682 15H16.6306C16.8334 14.9988 16.9979 14.8211 17 14.6007L16.9999 6.44879ZM0 5.64505L0.000125184 2.2156C0.00100137 1.99427 0.165849 1.81494 0.369487 1.81373H2.40122V2.51128V2.51115C2.40197 2.8082 2.51087 3.09274 2.70425 3.30278C2.89763 3.51281 3.15962 3.63109 3.4331 3.63191H4.47476C4.74826 3.63109 5.01024 3.51268 5.20362 3.30264C5.397 3.09274 5.50603 2.80819 5.50703 2.51115V1.81359H11.4927V2.51115C11.4937 2.8082 11.6027 3.09274 11.7961 3.30264C11.9895 3.51254 12.2515 3.63096 12.525 3.63191H13.567C13.8404 3.63096 14.1023 3.51254 14.2956 3.3025C14.489 3.0926 14.598 2.80806 14.5989 2.51115V1.8136L16.6303 1.81373C16.8339 1.81496 16.9988 1.99427 16.9996 2.2156V5.64492L0 5.64505ZM13.5671 0H12.525C12.4472 0.000135941 12.3725 0.0338517 12.3176 0.0938048C12.2627 0.15376 12.2319 0.235056 12.2323 0.319617V2.51193C12.233 2.68703 12.3638 2.82869 12.525 2.82883H13.5671C13.7283 2.82856 13.859 2.6869 13.8597 2.51193V0.319617C13.8595 0.234649 13.8284 0.153217 13.7734 0.0929904C13.7185 0.0338531 13.6444 0.000546577 13.5671 0.000271633L13.5671 0ZM4.47483 0H3.43317C3.35569 0.000271881 3.28147 0.0335794 3.22652 0.0927188C3.17144 0.153081 3.14053 0.234513 3.14015 0.319481V2.51193C3.1409 2.68717 3.27183 2.82883 3.43317 2.82883H4.47483C4.63605 2.82842 4.76697 2.68704 4.76822 2.51193V0.319621C4.76785 0.234652 4.73656 0.153081 4.68123 0.0929938C4.62641 0.0335851 4.55219 0.000271464 4.47483 0Z" fill="#505050"/>
</svg>
