<svg width="16" height="16" viewBox="0 0 16 16" fill="none" xmlns="http://www.w3.org/2000/svg">
<path d="M5.90302 2.15716L4.01005 0.263981C3.65811 -0.0879936 3.09291 -0.0879936 2.74628 0.263981L0.634702 2.37579C-0.0104925 3.02105 -0.181126 4.00231 0.202782 4.8289C1.00262 6.54611 2.27707 8.73793 4.31401 10.8817C6.72425 13.4148 9.2785 14.9187 11.1769 15.7985C12.0034 16.1824 12.9793 16.0065 13.6245 15.3665L15.736 13.2547C16.088 12.9027 16.088 12.3375 15.736 11.9908L13.8164 10.071C13.4645 9.71898 12.8993 9.71898 12.5526 10.071L11.1342 11.4895C10.0518 10.9616 8.45204 10.0176 6.92169 8.38578C5.71657 7.0952 4.95408 5.80999 4.49015 4.84473L5.90856 3.42616C6.25516 3.06886 6.25496 2.50378 5.90302 2.15716Z" fill="white"/>
</svg>
