<svg width="11" height="7" viewBox="0 0 11 7" fill="none" xmlns="http://www.w3.org/2000/svg">
<path d="M5.41765 6.99527C5.23772 6.97443 5.06729 6.88639 4.92968 6.74297L0.311559 1.8989C0.133157 1.71399 0.0220976 1.44987 0.00292206 1.16475C-0.0160999 0.879411 0.0583 0.596719 0.209854 0.378784C0.361565 0.160839 0.577703 0.0256801 0.810879 0.00334358C1.04404 -0.0191832 1.27489 0.0727987 1.45239 0.259017L5.49992 4.50599L9.54746 0.259017H9.54761C9.72509 0.0727987 9.95594 -0.0191855 10.1891 0.00334358C10.4223 0.025682 10.6384 0.160839 10.7901 0.378784C10.9417 0.596729 11.0161 0.879436 10.9971 1.16475C10.9781 1.44989 10.8668 1.71403 10.6884 1.8989L6.07032 6.74297C5.88946 6.93145 5.65398 7.02249 5.41746 6.99527H5.41765Z" fill="#505050"/>
</svg>
