<svg width="10" height="18" viewBox="0 0 10 18" fill="none" xmlns="http://www.w3.org/2000/svg">
<path d="M0.290323 9.5868H2.26341V17.7097C2.26341 17.8701 2.39336 18 2.55374 18H5.89918C6.05955 18 6.1895 17.8701 6.1895 17.7097V9.62506H8.45774C8.60522 9.62506 8.7293 9.51439 8.74614 9.3679L9.09064 6.37746C9.1001 6.29518 9.07403 6.21279 9.01899 6.15106C8.96388 6.08928 8.88503 6.05392 8.80229 6.05392H6.18962V4.17937C6.18962 3.61428 6.49388 3.32774 7.09403 3.32774C7.17956 3.32774 8.80229 3.32774 8.80229 3.32774C8.96266 3.32774 9.09261 3.19773 9.09261 3.03741V0.292471C9.09261 0.132097 8.96266 0.00214839 8.80229 0.00214839H6.44806C6.43146 0.00133548 6.39459 0 6.34024 0C5.93175 0 4.5119 0.080187 3.39033 1.11199C2.14763 2.2554 2.32037 3.62445 2.36166 3.86181V6.05386H0.290323C0.129948 6.05386 0 6.18381 0 6.34419V9.29642C0 9.45679 0.129948 9.5868 0.290323 9.5868Z" fill="#505050"/>
</svg>
