<svg width="12" height="13" viewBox="0 0 12 13" fill="none" xmlns="http://www.w3.org/2000/svg">
<path d="M7.38118 0.502441C5.92986 0.502441 4.857 1.12634 4.20627 1.83525V1.08129C4.20627 0.920971 4.07632 0.790964 3.91595 0.790964H0.455362C0.294987 0.790964 0.165039 0.920971 0.165039 1.08129V12.69C0.165039 12.8504 0.294987 12.9803 0.455362 12.9803H4.06099C4.22137 12.9803 4.35132 12.8504 4.35132 12.69V6.94638C4.35132 5.01092 4.87703 4.25689 6.22622 4.25689C7.6956 4.25689 7.81237 5.46568 7.81237 7.04596V12.6901C7.81237 12.8504 7.94232 12.9804 8.10269 12.9804H11.7097C11.87 12.9804 12 12.8504 12 12.6901V6.32248C12 3.44451 11.4512 0.502441 7.38118 0.502441Z" fill="#505050"/>
</svg>
