<svg width="19" height="18" viewBox="0 0 19 18" fill="none" xmlns="http://www.w3.org/2000/svg">
<path d="M2.31138 0H15.6911C16.9623 0 18.0014 1.03952 18.0014 2.31066V15.6904C18.0014 16.9612 16.9623 18 15.6911 18H2.31138C1.04024 18 0 16.9611 0 15.6904V2.31066C0 1.03952 1.04024 0 2.31138 0ZM13.1138 1.99918C12.6675 1.99918 12.3034 2.36467 12.3034 2.81074V4.74974C12.3034 5.196 12.6675 5.56064 13.1138 5.56064H15.1482C15.5937 5.56064 15.9586 5.196 15.9586 4.74974V2.81074C15.9586 2.36467 15.5937 1.99918 15.1482 1.99918H13.1138ZM15.9663 7.61197H14.3824C14.5326 8.10251 14.614 8.61981 14.614 9.15763C14.614 12.1508 12.1079 14.5785 9.01764 14.5785C5.92817 14.5785 3.42195 12.1508 3.42195 9.15763C3.42195 8.61981 3.50416 8.10251 3.65363 7.61197H2.00116V15.2165C2.00116 15.6103 2.32273 15.9307 2.71618 15.9307H15.2516C15.6454 15.9307 15.9663 15.6103 15.9663 15.2165V7.61197ZM9.0177 5.4584C7.02194 5.4584 5.40301 7.0262 5.40301 8.96196C5.40301 10.8957 7.02194 12.4647 9.0177 12.4647C11.0145 12.4647 12.6335 10.8957 12.6335 8.96196C12.6335 7.02614 11.0145 5.4584 9.0177 5.4584Z" fill="#505050"/>
</svg>
