<svg width="17" height="17" viewBox="0 0 17 17" fill="none" xmlns="http://www.w3.org/2000/svg">
<path d="M4.05321 5.82503H0.886483C0.745939 5.82503 0.632058 5.93921 0.632058 6.08001V16.2758C0.632058 16.4166 0.745939 16.5308 0.886483 16.5308H4.05321C4.19375 16.5308 4.30763 16.4166 4.30763 16.2758V6.08001C4.30763 5.93921 4.19375 5.82503 4.05321 5.82503Z" fill="white"/>
<path d="M2.47099 0.75647C1.31875 0.75647 0.381348 1.69492 0.381348 2.84843C0.381348 4.00244 1.31875 4.94125 2.47099 4.94125C3.62231 4.94125 4.55895 4.00239 4.55895 2.84843C4.55901 1.69492 3.62231 0.75647 2.47099 0.75647Z" fill="white"/>
<path d="M12.108 5.57162C10.8361 5.57162 9.89592 6.11959 9.32566 6.74221V6.08001C9.32566 5.93921 9.21178 5.82503 9.07123 5.82503H6.03854C5.89799 5.82503 5.78411 5.93921 5.78411 6.08001V16.2758C5.78411 16.4166 5.89799 16.5308 6.03854 16.5308H9.19834C9.33889 16.5308 9.45277 16.4166 9.45277 16.2758V11.2312C9.45277 9.53135 9.91348 8.8691 11.0958 8.8691C12.3835 8.8691 12.4859 9.93076 12.4859 11.3187V16.2758C12.4859 16.4167 12.5997 16.5308 12.7403 16.5308H15.9013C16.0418 16.5308 16.1557 16.4167 16.1557 16.2758V10.6833C16.1557 8.1556 15.6748 5.57162 12.108 5.57162Z" fill="white"/>
</svg>
