<svg width="15" height="18" viewBox="0 0 15 18" fill="none" xmlns="http://www.w3.org/2000/svg">
<path d="M7.2973 0C5.36197 0 3.50576 0.768815 2.13726 2.13726C0.768816 3.5057 0 5.36197 0 7.2973C0 13.1351 7.2973 18 7.2973 18C7.2973 18 14.5946 13.1351 14.5946 7.2973C14.5946 5.36197 13.8258 3.50576 12.4573 2.13726C11.0889 0.768815 9.23262 0 7.2973 0ZM7.2973 11.1892C6.26506 11.1892 5.27513 10.7792 4.5454 10.0492C3.81544 9.31947 3.4054 8.32954 3.4054 7.2973C3.4054 6.26506 3.81544 5.27513 4.5454 4.5454C5.27513 3.81544 6.26506 3.40541 7.2973 3.40541C8.32954 3.40541 9.31947 3.81544 10.0492 4.5454C10.7791 5.27513 11.1892 6.26506 11.1892 7.2973C11.1892 8.32954 10.7791 9.31947 10.0492 10.0492C9.31947 10.7792 8.32954 11.1892 7.2973 11.1892Z" fill="#505050"/>
</svg>
