<svg width="202" height="14" viewBox="0 0 202 14" fill="none" xmlns="http://www.w3.org/2000/svg">
<path d="M8.3255 5.288C8.3255 5.88533 8.1815 6.44533 7.8935 6.968C7.61617 7.49067 7.1735 7.912 6.5655 8.232C5.96817 8.552 5.21083 8.712 4.2935 8.712H2.4215V13H0.181499V1.832H4.2935C5.1575 1.832 5.8935 1.98133 6.5015 2.28C7.1095 2.57867 7.56283 2.98933 7.8615 3.512C8.17083 4.03467 8.3255 4.62667 8.3255 5.288ZM4.1975 6.904C4.81617 6.904 5.27483 6.76533 5.5735 6.488C5.87217 6.2 6.0215 5.8 6.0215 5.288C6.0215 4.2 5.4135 3.656 4.1975 3.656H2.4215V6.904H4.1975ZM14.1719 13.144C13.3185 13.144 12.5505 12.9573 11.8679 12.584C11.1852 12.2 10.6465 11.6613 10.2519 10.968C9.86787 10.2747 9.67587 9.47467 9.67587 8.568C9.67587 7.66133 9.87321 6.86133 10.2679 6.168C10.6732 5.47467 11.2225 4.94133 11.9159 4.568C12.6092 4.184 13.3825 3.992 14.2359 3.992C15.0892 3.992 15.8625 4.184 16.5559 4.568C17.2492 4.94133 17.7932 5.47467 18.1879 6.168C18.5932 6.86133 18.7959 7.66133 18.7959 8.568C18.7959 9.47467 18.5879 10.2747 18.1719 10.968C17.7665 11.6613 17.2119 12.2 16.5079 12.584C15.8145 12.9573 15.0359 13.144 14.1719 13.144ZM14.1719 11.192C14.5772 11.192 14.9559 11.096 15.3079 10.904C15.6705 10.7013 15.9585 10.4027 16.1719 10.008C16.3852 9.61333 16.4919 9.13333 16.4919 8.568C16.4919 7.72533 16.2679 7.08 15.8199 6.632C15.3825 6.17333 14.8439 5.944 14.2039 5.944C13.5639 5.944 13.0252 6.17333 12.5879 6.632C12.1612 7.08 11.9479 7.72533 11.9479 8.568C11.9479 9.41067 12.1559 10.0613 12.5719 10.52C12.9985 10.968 13.5319 11.192 14.1719 11.192ZM33.047 4.136L30.455 13H28.039L26.423 6.808L24.807 13H22.375L19.767 4.136H22.039L23.607 10.888L25.303 4.136H27.671L29.335 10.872L30.903 4.136H33.047ZM42.819 8.376C42.819 8.696 42.7977 8.984 42.755 9.24H36.275C36.3283 9.88 36.5523 10.3813 36.947 10.744C37.3417 11.1067 37.827 11.288 38.403 11.288C39.235 11.288 39.827 10.9307 40.179 10.216H42.595C42.339 11.0693 41.8483 11.7733 41.123 12.328C40.3977 12.872 39.507 13.144 38.451 13.144C37.5977 13.144 36.8297 12.9573 36.147 12.584C35.475 12.2 34.947 11.6613 34.563 10.968C34.1897 10.2747 34.003 9.47467 34.003 8.568C34.003 7.65067 34.1897 6.84533 34.563 6.152C34.9363 5.45867 35.459 4.92533 36.131 4.552C36.803 4.17867 37.5763 3.992 38.451 3.992C39.2937 3.992 40.0457 4.17333 40.707 4.536C41.379 4.89867 41.8963 5.416 42.259 6.088C42.6323 6.74933 42.819 7.512 42.819 8.376ZM40.499 7.736C40.4883 7.16 40.2803 6.70133 39.875 6.36C39.4697 6.008 38.9737 5.832 38.387 5.832C37.8323 5.832 37.363 6.00267 36.979 6.344C36.6057 6.67467 36.3763 7.13867 36.291 7.736H40.499ZM47.014 5.512C47.302 5.04267 47.6753 4.67467 48.134 4.408C48.6033 4.14133 49.1367 4.008 49.734 4.008V6.36H49.142C48.438 6.36 47.9047 6.52533 47.542 6.856C47.19 7.18667 47.014 7.76267 47.014 8.584V13H44.774V4.136H47.014V5.512ZM55.6267 5.976H54.0747V13H51.8027V5.976H50.7947V4.136H51.8027V3.688C51.8027 2.6 52.1121 1.8 52.7307 1.288C53.3494 0.775999 54.2827 0.536 55.5307 0.568V2.456C54.9867 2.44533 54.6081 2.536 54.3947 2.728C54.1814 2.92 54.0747 3.26667 54.0747 3.768V4.136H55.6267V5.976ZM65.7664 4.136V13H63.5104V11.88C63.2224 12.264 62.8437 12.568 62.3744 12.792C61.9157 13.0053 61.4144 13.112 60.8704 13.112C60.177 13.112 59.5637 12.968 59.0304 12.68C58.497 12.3813 58.0757 11.9493 57.7664 11.384C57.4677 10.808 57.3184 10.1253 57.3184 9.336V4.136H59.5584V9.016C59.5584 9.72 59.7344 10.264 60.0864 10.648C60.4384 11.0213 60.9184 11.208 61.5264 11.208C62.145 11.208 62.6304 11.0213 62.9824 10.648C63.3344 10.264 63.5104 9.72 63.5104 9.016V4.136H65.7664ZM70.5365 1.16V13H68.2965V1.16H70.5365ZM82.9621 13L80.4981 8.648H79.4421V13H77.2021V1.832H81.3941C82.2581 1.832 82.9941 1.98667 83.6021 2.296C84.2101 2.59467 84.6635 3.00533 84.9621 3.528C85.2715 4.04 85.4261 4.616 85.4261 5.256C85.4261 5.992 85.2128 6.65867 84.7861 7.256C84.3595 7.84267 83.7248 8.248 82.8821 8.472L85.5541 13H82.9621ZM79.4421 6.968H81.3141C81.9221 6.968 82.3755 6.824 82.6741 6.536C82.9728 6.23733 83.1221 5.82667 83.1221 5.304C83.1221 4.792 82.9728 4.39733 82.6741 4.12C82.3755 3.832 81.9221 3.688 81.3141 3.688H79.4421V6.968ZM96.0121 8.376C96.0121 8.696 95.9908 8.984 95.9481 9.24H89.4681C89.5215 9.88 89.7455 10.3813 90.1401 10.744C90.5348 11.1067 91.0201 11.288 91.5961 11.288C92.4281 11.288 93.0201 10.9307 93.3721 10.216H95.7881C95.5321 11.0693 95.0415 11.7733 94.3161 12.328C93.5908 12.872 92.7001 13.144 91.6441 13.144C90.7908 13.144 90.0228 12.9573 89.3401 12.584C88.6681 12.2 88.1401 11.6613 87.7561 10.968C87.3828 10.2747 87.1961 9.47467 87.1961 8.568C87.1961 7.65067 87.3828 6.84533 87.7561 6.152C88.1295 5.45867 88.6521 4.92533 89.3241 4.552C89.9961 4.17867 90.7695 3.992 91.6441 3.992C92.4868 3.992 93.2388 4.17333 93.9001 4.536C94.5721 4.89867 95.0895 5.416 95.4521 6.088C95.8255 6.74933 96.0121 7.512 96.0121 8.376ZM93.6921 7.736C93.6815 7.16 93.4735 6.70133 93.0681 6.36C92.6628 6.008 92.1668 5.832 91.5801 5.832C91.0255 5.832 90.5561 6.00267 90.1721 6.344C89.7988 6.67467 89.5695 7.13867 89.4841 7.736H93.6921ZM101.359 13.144C100.634 13.144 99.9831 13.016 99.4071 12.76C98.8311 12.4933 98.3725 12.136 98.0311 11.688C97.7005 11.24 97.5191 10.744 97.4871 10.2H99.7431C99.7858 10.5413 99.9511 10.824 100.239 11.048C100.538 11.272 100.906 11.384 101.343 11.384C101.77 11.384 102.1 11.2987 102.335 11.128C102.58 10.9573 102.703 10.7387 102.703 10.472C102.703 10.184 102.554 9.97067 102.255 9.832C101.967 9.68267 101.503 9.52267 100.863 9.352C100.202 9.192 99.6578 9.02667 99.2311 8.856C98.8151 8.68533 98.4525 8.424 98.1431 8.072C97.8445 7.72 97.6951 7.24533 97.6951 6.648C97.6951 6.15733 97.8338 5.70933 98.1111 5.304C98.3991 4.89867 98.8045 4.57867 99.3271 4.344C99.8605 4.10933 100.484 3.992 101.199 3.992C102.255 3.992 103.098 4.25867 103.727 4.792C104.356 5.31467 104.703 6.024 104.767 6.92H102.623C102.591 6.568 102.442 6.29067 102.175 6.088C101.919 5.87467 101.572 5.768 101.135 5.768C100.73 5.768 100.415 5.84267 100.191 5.992C99.9778 6.14133 99.8711 6.34933 99.8711 6.616C99.8711 6.91467 100.02 7.144 100.319 7.304C100.618 7.45333 101.082 7.608 101.711 7.768C102.351 7.928 102.879 8.09333 103.295 8.264C103.711 8.43467 104.068 8.70133 104.367 9.064C104.676 9.416 104.836 9.88533 104.847 10.472C104.847 10.984 104.703 11.4427 104.415 11.848C104.138 12.2533 103.732 12.5733 103.199 12.808C102.676 13.032 102.063 13.144 101.359 13.144ZM115.374 4.136V13H113.118V11.88C112.83 12.264 112.451 12.568 111.982 12.792C111.523 13.0053 111.022 13.112 110.478 13.112C109.785 13.112 109.171 12.968 108.638 12.68C108.105 12.3813 107.683 11.9493 107.374 11.384C107.075 10.808 106.926 10.1253 106.926 9.336V4.136H109.166V9.016C109.166 9.72 109.342 10.264 109.694 10.648C110.046 11.0213 110.526 11.208 111.134 11.208C111.753 11.208 112.238 11.0213 112.59 10.648C112.942 10.264 113.118 9.72 113.118 9.016V4.136H115.374ZM128.912 4.008C130 4.008 130.875 4.344 131.536 5.016C132.208 5.67733 132.544 6.60533 132.544 7.8V13H130.304V8.104C130.304 7.41067 130.128 6.88267 129.776 6.52C129.424 6.14667 128.944 5.96 128.336 5.96C127.728 5.96 127.243 6.14667 126.88 6.52C126.528 6.88267 126.352 7.41067 126.352 8.104V13H124.112V8.104C124.112 7.41067 123.936 6.88267 123.584 6.52C123.232 6.14667 122.752 5.96 122.144 5.96C121.525 5.96 121.035 6.14667 120.672 6.52C120.32 6.88267 120.144 7.41067 120.144 8.104V13H117.904V4.136H120.144V5.208C120.432 4.83467 120.8 4.54133 121.248 4.328C121.707 4.11467 122.208 4.008 122.752 4.008C123.445 4.008 124.064 4.15733 124.608 4.456C125.152 4.744 125.573 5.16 125.872 5.704C126.16 5.192 126.576 4.78133 127.12 4.472C127.675 4.16267 128.272 4.008 128.912 4.008ZM143.23 8.376C143.23 8.696 143.208 8.984 143.166 9.24H136.686C136.739 9.88 136.963 10.3813 137.358 10.744C137.752 11.1067 138.238 11.288 138.814 11.288C139.646 11.288 140.238 10.9307 140.59 10.216H143.006C142.75 11.0693 142.259 11.7733 141.534 12.328C140.808 12.872 139.918 13.144 138.862 13.144C138.008 13.144 137.24 12.9573 136.558 12.584C135.886 12.2 135.358 11.6613 134.974 10.968C134.6 10.2747 134.414 9.47467 134.414 8.568C134.414 7.65067 134.6 6.84533 134.974 6.152C135.347 5.45867 135.87 4.92533 136.542 4.552C137.214 4.17867 137.987 3.992 138.862 3.992C139.704 3.992 140.456 4.17333 141.118 4.536C141.79 4.89867 142.307 5.416 142.67 6.088C143.043 6.74933 143.23 7.512 143.23 8.376ZM140.91 7.736C140.899 7.16 140.691 6.70133 140.286 6.36C139.88 6.008 139.384 5.832 138.798 5.832C138.243 5.832 137.774 6.00267 137.39 6.344C137.016 6.67467 136.787 7.13867 136.702 7.736H140.91ZM157.461 5.288C157.461 5.88533 157.317 6.44533 157.029 6.968C156.752 7.49067 156.309 7.912 155.701 8.232C155.104 8.552 154.346 8.712 153.429 8.712H151.557V13H149.317V1.832H153.429C154.293 1.832 155.029 1.98133 155.637 2.28C156.245 2.57867 156.698 2.98933 156.997 3.512C157.306 4.03467 157.461 4.62667 157.461 5.288ZM153.333 6.904C153.952 6.904 154.41 6.76533 154.709 6.488C155.008 6.2 155.157 5.8 155.157 5.288C155.157 4.2 154.549 3.656 153.333 3.656H151.557V6.904H153.333ZM158.796 8.536C158.796 7.64 158.972 6.84533 159.324 6.152C159.686 5.45867 160.172 4.92533 160.78 4.552C161.398 4.17867 162.086 3.992 162.844 3.992C163.505 3.992 164.081 4.12533 164.572 4.392C165.073 4.65867 165.473 4.99467 165.772 5.4V4.136H168.028V13H165.772V11.704C165.484 12.12 165.084 12.4667 164.572 12.744C164.07 13.0107 163.489 13.144 162.828 13.144C162.081 13.144 161.398 12.952 160.78 12.568C160.172 12.184 159.686 11.6453 159.324 10.952C158.972 10.248 158.796 9.44267 158.796 8.536ZM165.772 8.568C165.772 8.024 165.665 7.56 165.452 7.176C165.238 6.78133 164.95 6.48267 164.588 6.28C164.225 6.06667 163.836 5.96 163.42 5.96C163.004 5.96 162.62 6.06133 162.268 6.264C161.916 6.46667 161.628 6.76533 161.404 7.16C161.19 7.544 161.084 8.00267 161.084 8.536C161.084 9.06933 161.19 9.53867 161.404 9.944C161.628 10.3387 161.916 10.6427 162.268 10.856C162.63 11.0693 163.014 11.176 163.42 11.176C163.836 11.176 164.225 11.0747 164.588 10.872C164.95 10.6587 165.238 10.36 165.452 9.976C165.665 9.58133 165.772 9.112 165.772 8.568ZM172.775 5.512C173.063 5.04267 173.437 4.67467 173.895 4.408C174.365 4.14133 174.898 4.008 175.495 4.008V6.36H174.903C174.199 6.36 173.666 6.52533 173.303 6.856C172.951 7.18667 172.775 7.76267 172.775 8.584V13H170.535V4.136H172.775V5.512ZM180.716 13.144C179.991 13.144 179.34 13.016 178.764 12.76C178.188 12.4933 177.729 12.136 177.388 11.688C177.057 11.24 176.876 10.744 176.844 10.2H179.1C179.143 10.5413 179.308 10.824 179.596 11.048C179.895 11.272 180.263 11.384 180.7 11.384C181.127 11.384 181.457 11.2987 181.692 11.128C181.937 10.9573 182.06 10.7387 182.06 10.472C182.06 10.184 181.911 9.97067 181.612 9.832C181.324 9.68267 180.86 9.52267 180.22 9.352C179.559 9.192 179.015 9.02667 178.588 8.856C178.172 8.68533 177.809 8.424 177.5 8.072C177.201 7.72 177.052 7.24533 177.052 6.648C177.052 6.15733 177.191 5.70933 177.468 5.304C177.756 4.89867 178.161 4.57867 178.684 4.344C179.217 4.10933 179.841 3.992 180.556 3.992C181.612 3.992 182.455 4.25867 183.084 4.792C183.713 5.31467 184.06 6.024 184.124 6.92H181.98C181.948 6.568 181.799 6.29067 181.532 6.088C181.276 5.87467 180.929 5.768 180.492 5.768C180.087 5.768 179.772 5.84267 179.548 5.992C179.335 6.14133 179.228 6.34933 179.228 6.616C179.228 6.91467 179.377 7.144 179.676 7.304C179.975 7.45333 180.439 7.608 181.068 7.768C181.708 7.928 182.236 8.09333 182.652 8.264C183.068 8.43467 183.425 8.70133 183.724 9.064C184.033 9.416 184.193 9.88533 184.204 10.472C184.204 10.984 184.06 11.4427 183.772 11.848C183.495 12.2533 183.089 12.5733 182.556 12.808C182.033 13.032 181.42 13.144 180.716 13.144ZM194.603 8.376C194.603 8.696 194.581 8.984 194.539 9.24H188.059C188.112 9.88 188.336 10.3813 188.731 10.744C189.125 11.1067 189.611 11.288 190.187 11.288C191.019 11.288 191.611 10.9307 191.963 10.216H194.379C194.123 11.0693 193.632 11.7733 192.907 12.328C192.181 12.872 191.291 13.144 190.235 13.144C189.381 13.144 188.613 12.9573 187.931 12.584C187.259 12.2 186.731 11.6613 186.347 10.968C185.973 10.2747 185.787 9.47467 185.787 8.568C185.787 7.65067 185.973 6.84533 186.347 6.152C186.72 5.45867 187.243 4.92533 187.915 4.552C188.587 4.17867 189.36 3.992 190.235 3.992C191.077 3.992 191.829 4.17333 192.491 4.536C193.163 4.89867 193.68 5.416 194.043 6.088C194.416 6.74933 194.603 7.512 194.603 8.376ZM192.283 7.736C192.272 7.16 192.064 6.70133 191.659 6.36C191.253 6.008 190.757 5.832 190.171 5.832C189.616 5.832 189.147 6.00267 188.763 6.344C188.389 6.67467 188.16 7.13867 188.075 7.736H192.283ZM198.798 5.512C199.086 5.04267 199.459 4.67467 199.918 4.408C200.387 4.14133 200.92 4.008 201.518 4.008V6.36H200.926C200.222 6.36 199.688 6.52533 199.326 6.856C198.974 7.18667 198.798 7.76267 198.798 8.584V13H196.558V4.136H198.798V5.512Z" fill="black"/>
</svg>
