<svg width="33" height="25" viewBox="0 0 33 25" fill="none" xmlns="http://www.w3.org/2000/svg">
<g opacity="0.1">
<path d="M3.45514 14.4211V9.34224C3.45514 8.90691 3.46205 8.47501 3.51733 8.0432C3.4966 8.19521 3.47587 8.35069 3.45514 8.50271C3.54151 7.86702 3.71081 7.252 3.95611 6.66123C3.89738 6.79943 3.83864 6.93763 3.78336 7.07237C4.02866 6.49539 4.34307 5.95294 4.72659 5.45543C4.63676 5.5729 4.54693 5.68691 4.4571 5.80438C4.84751 5.29995 5.30013 4.84738 5.80453 4.45694C5.68706 4.54678 5.57305 4.63661 5.45558 4.72643C5.9531 4.34639 6.49554 4.02852 7.07253 3.7832C6.93433 3.84194 6.79613 3.90067 6.66139 3.95595C7.25219 3.71065 7.87065 3.54135 8.50286 3.45498C8.35085 3.47571 8.19537 3.49644 8.04335 3.51717C8.36121 3.47571 8.68251 3.45498 9.00383 3.45498C9.44607 3.45498 9.9125 3.26496 10.2269 2.95055C10.5275 2.64997 10.752 2.15939 10.7313 1.72751C10.7106 1.28182 10.5655 0.818841 10.2269 0.504473C9.88828 0.193523 9.47368 -0.00341102 9.00383 4.47521e-05C7.24872 0.00695503 5.45557 0.525201 4.00794 1.52715C3.3135 2.0074 2.66398 2.55675 2.12843 3.21663C1.81748 3.60358 1.51344 3.99743 1.25779 4.42589C0.998667 4.85776 0.801732 5.31725 0.611684 5.78028C0.148718 6.89623 0.00015183 8.1055 0.00015183 9.30434V14.4177C0.00015183 14.8599 0.19363 15.3263 0.50458 15.6407C0.805163 15.9413 1.29574 16.1659 1.72762 16.1451C2.17331 16.1244 2.63629 15.9793 2.95066 15.6407C3.25815 15.3021 3.45509 14.8875 3.45509 14.4211L3.45514 14.4211Z" fill="black"/>
<path d="M10.8936 23.2728H4.21515C2.847 23.2728 1.72757 22.1533 1.72757 20.7852V14.1068C1.72757 12.7386 2.847 11.6192 4.21515 11.6192H10.8936C12.2617 11.6192 13.3812 12.7386 13.3812 14.1068V20.7852C13.3812 22.1533 12.2617 23.2728 10.8936 23.2728Z" fill="black"/>
<path d="M10.8936 21.5449H4.92337C4.58132 21.5449 4.22545 21.5656 3.88689 21.5242C4.0389 21.5449 4.19438 21.5656 4.3464 21.5864C4.13219 21.5553 3.92489 21.5 3.7245 21.4171C3.8627 21.4758 4.0009 21.5345 4.13564 21.5898C3.9387 21.5069 3.75905 21.3998 3.58975 21.272C3.70722 21.3618 3.82124 21.4516 3.9387 21.5414C3.75904 21.4032 3.60012 21.2443 3.46192 21.0647C3.55175 21.1821 3.64158 21.2961 3.7314 21.4136C3.60357 21.2443 3.49992 21.0612 3.41355 20.8677C3.47228 21.0059 3.53102 21.1441 3.5863 21.2789C3.50338 21.0785 3.4481 20.8712 3.417 20.657C3.43773 20.809 3.45846 20.9645 3.47919 21.1165C3.44119 20.8159 3.45846 20.5084 3.45846 20.2078V14.8491C3.45846 14.4967 3.43773 14.1305 3.47919 13.7781C3.45846 13.9301 3.43773 14.0856 3.417 14.2376C3.4481 14.0234 3.50338 13.8161 3.5863 13.6157C3.52756 13.7539 3.46883 13.8921 3.41355 14.0269C3.49647 13.8299 3.60357 13.6503 3.7314 13.481C3.64157 13.5984 3.55174 13.7125 3.46192 13.8299C3.60012 13.6503 3.75904 13.4913 3.9387 13.3531C3.82123 13.443 3.70722 13.5328 3.58975 13.6226C3.75905 13.4948 3.94216 13.3911 4.13564 13.3048C3.99744 13.3635 3.85924 13.4222 3.7245 13.4775C3.92489 13.3946 4.13218 13.3393 4.3464 13.3082C4.19438 13.329 4.0389 13.3497 3.88689 13.3704C4.18747 13.3324 4.49496 13.3497 4.79556 13.3497H10.1542C10.5066 13.3497 10.8728 13.329 11.2252 13.3704C11.0732 13.3497 10.9178 13.329 10.7657 13.3082C10.9799 13.3393 11.1872 13.3946 11.3876 13.4775C11.2494 13.4188 11.1112 13.3601 10.9765 13.3048C11.1734 13.3877 11.3531 13.4948 11.5224 13.6226C11.4049 13.5328 11.2909 13.443 11.1734 13.3531C11.3531 13.4913 11.512 13.6503 11.6502 13.8299C11.5604 13.7125 11.4706 13.5984 11.3807 13.481C11.5086 13.6503 11.6122 13.8334 11.6986 14.0269C11.6398 13.8887 11.5811 13.7505 11.5258 13.6157C11.6088 13.8161 11.664 14.0234 11.6951 14.2376C11.6744 14.0856 11.6537 13.9301 11.6329 13.7781C11.6709 14.0787 11.6537 14.3862 11.6537 14.6868V20.0454C11.6537 20.3978 11.6744 20.7641 11.6329 21.1165C11.6537 20.9645 11.6744 20.809 11.6951 20.657C11.664 20.8712 11.6088 21.0785 11.5258 21.2789C11.5846 21.1407 11.6433 21.0025 11.6986 20.8677C11.6157 21.0647 11.5086 21.2443 11.3807 21.4136C11.4706 21.2961 11.5604 21.1821 11.6502 21.0647C11.512 21.2443 11.3531 21.4032 11.1734 21.5414C11.2909 21.4516 11.4049 21.3618 11.5224 21.272C11.3531 21.3998 11.17 21.5034 10.9765 21.5898C11.1147 21.5311 11.2529 21.4723 11.3876 21.4171C11.1872 21.5 10.9799 21.5553 10.7657 21.5864C10.9178 21.5656 11.0732 21.5449 11.2252 21.5242C11.1147 21.538 11.0041 21.5449 10.8936 21.5449C10.4479 21.5483 9.98837 21.7349 9.67053 22.0493C9.36995 22.3499 9.14537 22.8405 9.1661 23.2724C9.18683 23.7181 9.33194 24.181 9.67053 24.4954C10.0057 24.8029 10.4272 25.0067 10.8936 24.9998C12.7558 24.9826 14.3969 23.7422 14.9393 21.9629C15.1259 21.3514 15.1086 20.7191 15.1086 20.0903V15.433C15.1086 14.9976 15.1121 14.5589 15.1086 14.1235C15.1052 13.398 14.9221 12.7104 14.5835 12.0713C14.39 11.7085 14.124 11.363 13.8234 11.0797C13.5297 10.8033 13.1911 10.5373 12.8249 10.3646C12.1926 10.064 11.5673 9.89122 10.859 9.89122H4.29109C3.83503 9.89122 3.3617 9.94304 2.92982 10.0951C2.3632 10.2955 1.95898 10.5373 1.49255 10.907C1.16778 11.1627 0.91557 11.4875 0.680603 11.8226C0.138174 12.6 0 13.5328 0 14.4518V20.619C0 21.8075 0.407686 22.9753 1.28527 23.808C1.58239 24.0913 1.9279 24.3573 2.3045 24.5335C2.5498 24.6475 2.79856 24.7615 3.06117 24.8375C3.33411 24.917 3.62779 24.9481 3.90761 24.9792C4.08036 24.9999 4.25311 24.9999 4.42931 24.9999H10.8936C11.3358 24.9999 11.8023 24.8064 12.1166 24.4955C12.4172 24.1949 12.6418 23.7043 12.621 23.2724C12.6003 22.8267 12.4552 22.3638 12.1166 22.0494C11.7746 21.7419 11.36 21.545 10.8936 21.545L10.8936 21.5449Z" fill="black"/>
<path d="M21.307 14.4211V9.34224C21.307 8.90691 21.3139 8.47501 21.3692 8.0432C21.3485 8.19521 21.3277 8.35069 21.307 8.50271C21.3934 7.86702 21.5627 7.252 21.808 6.66123C21.7492 6.79943 21.6905 6.93763 21.6352 7.07237C21.8805 6.49539 22.1949 5.95294 22.5784 5.45543C22.4886 5.5729 22.3988 5.68691 22.309 5.80438C22.6994 5.29995 23.152 4.84738 23.6564 4.45694C23.5389 4.54678 23.4249 4.63661 23.3074 4.72643C23.805 4.34639 24.3474 4.02852 24.9244 3.7832C24.7862 3.84194 24.648 3.90067 24.5132 3.95595C25.1041 3.71065 25.7225 3.54135 26.3547 3.45498C26.2027 3.47571 26.0472 3.49644 25.8952 3.51717C26.2131 3.47571 26.5344 3.45498 26.8557 3.45498C27.2979 3.45498 27.7644 3.26496 28.0787 2.95055C28.3793 2.64997 28.6039 2.15939 28.5832 1.72751C28.5624 1.28182 28.4173 0.818841 28.0787 0.504473C27.7401 0.193523 27.3255 -0.00341102 26.8557 4.47521e-05C25.1006 0.00695503 23.3074 0.525201 21.8598 1.52715C21.1654 2.0074 20.5158 2.55675 19.9803 3.21663C19.6693 3.60358 19.3653 3.99743 19.1096 4.42589C18.8505 4.85776 18.6536 5.31725 18.4635 5.78028C18.0075 6.89623 17.8555 8.1055 17.8555 9.30434V14.4177C17.8555 14.8599 18.0489 15.3263 18.3599 15.6407C18.6605 15.9413 19.1511 16.1659 19.5829 16.1451C20.0286 16.1244 20.4916 15.9793 20.806 15.6407C21.1135 15.3021 21.3069 14.8875 21.3069 14.4211L21.307 14.4211Z" fill="black"/>
<path d="M28.7454 23.2728H22.067C20.6989 23.2728 19.5794 22.1533 19.5794 20.7852V14.1068C19.5794 12.7386 20.6989 11.6192 22.067 11.6192H28.7454C30.1136 11.6192 31.233 12.7386 31.233 14.1068V20.7852C31.233 22.1533 30.1136 23.2728 28.7454 23.2728Z" fill="black"/>
<path d="M28.7454 21.5449H22.7752C22.4332 21.5449 22.0773 21.5656 21.7387 21.5242C21.8908 21.5449 22.0462 21.5656 22.1983 21.5864C21.984 21.5553 21.7767 21.5 21.5764 21.4171C21.7146 21.4758 21.8528 21.5345 21.9875 21.5898C21.7906 21.5069 21.6109 21.3998 21.4416 21.272C21.5591 21.3618 21.6731 21.4516 21.7906 21.5414C21.6109 21.4032 21.452 21.2443 21.3138 21.0647C21.4036 21.1821 21.4934 21.2961 21.5833 21.4136C21.4554 21.2443 21.3518 21.0612 21.2654 20.8677C21.3241 21.0059 21.3829 21.1441 21.4382 21.2789C21.3552 21.0785 21.3 20.8712 21.2689 20.657C21.2896 20.809 21.3103 20.9645 21.331 21.1165C21.293 20.8159 21.3103 20.5084 21.3103 20.2078V14.8491C21.3103 14.4967 21.2896 14.1305 21.331 13.7781C21.3103 13.9301 21.2896 14.0856 21.2689 14.2376C21.3 14.0234 21.3552 13.8161 21.4382 13.6157C21.3794 13.7539 21.3207 13.8921 21.2654 14.0269C21.3483 13.8299 21.4554 13.6503 21.5833 13.481C21.4934 13.5984 21.4036 13.7125 21.3138 13.8299C21.452 13.6503 21.6109 13.4913 21.7906 13.3531C21.6731 13.443 21.5591 13.5328 21.4416 13.6226C21.6109 13.4948 21.794 13.3911 21.9875 13.3048C21.8493 13.3635 21.7111 13.4222 21.5764 13.4775C21.7767 13.3946 21.984 13.3393 22.1983 13.3082C22.0462 13.329 21.8908 13.3497 21.7387 13.3704C22.0393 13.3324 22.3468 13.3497 22.6474 13.3497H28.0061C28.3585 13.3497 28.7247 13.329 29.0771 13.3704C28.9251 13.3497 28.7696 13.329 28.6176 13.3082C28.8318 13.3393 29.0391 13.3946 29.2395 13.4775C29.1013 13.4188 28.9631 13.3601 28.8283 13.3048C29.0253 13.3877 29.2049 13.4948 29.3742 13.6226C29.2568 13.5328 29.1428 13.443 29.0253 13.3531C29.2049 13.4913 29.3639 13.6503 29.5021 13.8299C29.4122 13.7125 29.3224 13.5984 29.2326 13.481C29.3604 13.6503 29.4641 13.8334 29.5504 14.0269C29.4917 13.8887 29.433 13.7505 29.3777 13.6157C29.4606 13.8161 29.5159 14.0234 29.547 14.2376C29.5263 14.0856 29.5055 13.9301 29.4848 13.7781C29.5228 14.0787 29.5055 14.3862 29.5055 14.6868V20.0454C29.5055 20.3978 29.5263 20.7641 29.4848 21.1165C29.5055 20.9645 29.5263 20.809 29.547 20.657C29.5159 20.8712 29.4606 21.0785 29.3777 21.2789C29.4364 21.1407 29.4952 21.0025 29.5504 20.8677C29.4675 21.0647 29.3604 21.2443 29.2326 21.4136C29.3224 21.2961 29.4122 21.1821 29.5021 21.0647C29.3639 21.2443 29.2049 21.4032 29.0253 21.5414C29.1428 21.4516 29.2568 21.3618 29.3742 21.272C29.2049 21.3998 29.0218 21.5034 28.8283 21.5898C28.9665 21.5311 29.1047 21.4723 29.2395 21.4171C29.0391 21.5 28.8318 21.5553 28.6176 21.5864C28.7696 21.5656 28.9251 21.5449 29.0771 21.5242C28.9665 21.538 28.8594 21.5449 28.7454 21.5449C28.2997 21.5483 27.8402 21.7349 27.5224 22.0493C27.2218 22.3499 26.9972 22.8405 27.018 23.2724C27.0387 23.7181 27.1838 24.181 27.5224 24.4954C27.8575 24.8029 28.2791 25.0067 28.7454 24.9998C30.6077 24.9826 32.2488 23.7422 32.7912 21.9629C32.9778 21.3514 32.9605 20.7191 32.9605 20.0903V15.433C32.9605 14.9976 32.9639 14.5589 32.9605 14.1235C32.957 13.398 32.7739 12.7104 32.4353 12.0713C32.2419 11.7085 31.9758 11.363 31.6753 11.0797C31.3816 10.8033 31.043 10.5373 30.6767 10.3646C30.0445 10.064 29.4192 9.89122 28.7109 9.89122H22.1429C21.6869 9.89122 21.2136 9.94304 20.7817 10.0951C20.2151 10.2955 19.8108 10.5373 19.3444 10.907C19.0196 11.1627 18.7674 11.4875 18.5325 11.8226C17.9935 12.6 17.8553 13.5294 17.8553 14.4518V20.619C17.8553 21.8075 18.263 22.9753 19.1405 23.808C19.4377 24.0913 19.7832 24.3573 20.1598 24.5335C20.4051 24.6475 20.6538 24.7615 20.9164 24.8375C21.1894 24.917 21.4831 24.9481 21.7629 24.9792C21.9356 24.9999 22.1084 24.9999 22.2846 24.9999H28.7488C29.1911 24.9999 29.6575 24.8064 29.9719 24.4955C30.2725 24.1949 30.497 23.7043 30.4763 23.2724C30.4556 22.8267 30.3105 22.3638 29.9719 22.0494C29.6298 21.7419 29.2152 21.545 28.7454 21.545L28.7454 21.5449Z" fill="black"/>
</g>
</svg>
