<svg width="15" height="15" viewBox="0 0 15 15" fill="none" xmlns="http://www.w3.org/2000/svg">
<path d="M11.188 10.5137C12.6336 8.83326 13.1005 6.52142 12.4204 4.41167C11.7406 2.30175 10.0116 0.697886 7.85676 0.177701C5.70199 -0.342313 3.43177 0.296527 1.86403 1.86401C0.296285 3.4315 -0.342257 5.70177 0.177715 7.85675C0.697899 10.0117 2.30176 11.7407 4.41168 12.4204C6.52143 13.1005 8.83327 12.6337 10.5137 11.188L14.3258 15L15 14.3258L11.188 10.5137ZM2.53031 10.1897C1.51423 9.1736 0.943547 7.79561 0.943547 6.35873C0.943547 4.92189 1.5144 3.54402 2.53048 2.52795C3.54638 1.51187 4.92442 0.941186 6.36125 0.941186C7.79809 0.941186 9.17613 1.51187 10.1922 2.52795C11.2081 3.54402 11.779 4.92189 11.779 6.35873C11.779 7.79556 11.2083 9.1736 10.1922 10.1897C9.17562 11.2046 7.79779 11.7746 6.36125 11.7746C4.92472 11.7746 3.54689 11.2046 2.53031 10.1897Z" fill="#505050"/>
</svg>
