<svg width="94" height="15" viewBox="0 0 94 15" fill="none" xmlns="http://www.w3.org/2000/svg">
<path d="M9.97297 4.28635L8.17755 0.440954C8.09986 0.274509 7.97783 0.154018 7.838 0.0828832C7.73062 0.0281765 7.61434 0.000275158 7.50068 2.06206e-06C7.38598 -0.000271489 7.26931 0.0266717 7.1627 0.0808315C7.0251 0.150993 6.90399 0.270938 6.82472 0.440933L5.02957 4.28528C4.96666 4.41822 4.84436 4.51751 4.69356 4.53953L0.647749 5.13625C0.470129 5.161 0.323116 5.24539 0.215477 5.36246C0.135692 5.4493 0.075526 5.55557 0.0396886 5.67018C0.00332883 5.78616 -0.0088359 5.90966 0.0064664 6.02934C0.0270012 6.18908 0.0990682 6.34773 0.230126 6.47956L3.14949 9.42798C3.26419 9.53056 3.3258 9.69181 3.29781 9.85853L2.58772 14.0754C2.55869 14.2502 2.58511 14.4149 2.65547 14.5628C2.71655 14.6824 2.79516 14.7769 2.88711 14.8471C2.97919 14.9175 3.08867 14.9673 3.20599 14.9887C3.3517 15.0155 3.51048 14.9957 3.66378 14.916L7.29406 12.898C7.41897 12.8288 7.57357 12.8234 7.70751 12.898L11.319 14.9056C11.4714 14.9901 11.6331 15.0131 11.7887 14.9874C11.9123 14.9651 12.023 14.9153 12.1168 14.8444C12.21 14.774 12.2889 14.681 12.3435 14.5723C12.4126 14.4352 12.4426 14.2689 12.4151 14.0872L11.7037 9.85981C11.6804 9.71387 11.7236 9.55892 11.8331 9.44897L14.7607 6.48935C14.896 6.35805 14.9711 6.1953 14.9929 6.02967C15.0085 5.91178 14.998 5.78992 14.9642 5.67626C14.9306 5.56329 14.8735 5.45811 14.7971 5.37195C14.6892 5.25064 14.5387 5.16215 14.3528 5.13535L10.3325 4.54381C10.1827 4.53082 10.0427 4.43768 9.97237 4.28628L9.97297 4.28635Z" fill="#FFBF0E"/>
<path d="M29.5885 4.28635L27.793 0.440954C27.7153 0.274509 27.5933 0.154018 27.4535 0.0828832C27.3461 0.0281765 27.2298 0.000275158 27.1162 2.06206e-06C27.0015 -0.000271489 26.8848 0.0266717 26.7782 0.0808315C26.6406 0.150993 26.5195 0.270938 26.4402 0.440933L24.645 4.28528C24.5821 4.41822 24.4598 4.51751 24.309 4.53953L20.2632 5.13625C20.0856 5.161 19.9386 5.24539 19.831 5.36246C19.7512 5.4493 19.691 5.55557 19.6552 5.67018C19.6188 5.78616 19.6066 5.90966 19.6219 6.02934C19.6425 6.18908 19.7145 6.34773 19.8456 6.47956L22.765 9.42798C22.8797 9.53056 22.9413 9.69181 22.9133 9.85853L22.2032 14.0754C22.1742 14.2502 22.2006 14.4149 22.271 14.5628C22.332 14.6824 22.4106 14.7769 22.5026 14.8471C22.5947 14.9175 22.7041 14.9673 22.8215 14.9887C22.9672 15.0155 23.126 14.9957 23.2793 14.916L26.9095 12.898C27.0344 12.8288 27.189 12.8234 27.323 12.898L30.9345 14.9056C31.0869 14.9901 31.2486 15.0131 31.4042 14.9874C31.5278 14.9651 31.6384 14.9153 31.7322 14.8444C31.8255 14.774 31.9044 14.681 31.959 14.5723C32.0281 14.4352 32.058 14.2689 32.0306 14.0872L31.3192 9.85981C31.2959 9.71387 31.3391 9.55892 31.4485 9.44897L34.3761 6.48935C34.5115 6.35805 34.5866 6.1953 34.6084 6.02967C34.624 5.91178 34.6135 5.78992 34.5796 5.67626C34.546 5.56329 34.489 5.45811 34.4126 5.37195C34.3047 5.25064 34.1542 5.16215 33.9683 5.13535L29.9479 4.54381C29.7982 4.53082 29.6582 4.43768 29.5879 4.28628L29.5885 4.28635Z" fill="#FFBF0E"/>
<path d="M49.2037 4.28635L47.4083 0.440954C47.3306 0.274509 47.2085 0.154018 47.0687 0.0828832C46.9613 0.0281765 46.8451 0.000275158 46.7314 2.06206e-06C46.6167 -0.000271489 46.5 0.0266717 46.3934 0.0808315C46.2558 0.150993 46.1347 0.270938 46.0554 0.440933L44.2603 4.28528C44.1974 4.41822 44.0751 4.51751 43.9243 4.53953L39.8785 5.13625C39.7008 5.161 39.5538 5.24539 39.4462 5.36246C39.3664 5.4493 39.3062 5.55557 39.2704 5.67018C39.234 5.78616 39.2219 5.90966 39.2372 6.02934C39.2577 6.18908 39.3298 6.34773 39.4608 6.47956L42.3802 9.42798C42.4949 9.53056 42.5565 9.69181 42.5285 9.85853L41.8184 14.0754C41.7894 14.2502 41.8158 14.4149 41.8862 14.5628C41.9473 14.6824 42.0259 14.7769 42.1178 14.8471C42.2099 14.9175 42.3194 14.9673 42.4367 14.9887C42.5824 15.0155 42.7412 14.9957 42.8945 14.916L46.5248 12.898C46.6497 12.8288 46.8043 12.8234 46.9382 12.898L50.5498 14.9056C50.7021 14.9901 50.8638 15.0131 51.0194 14.9874C51.143 14.9651 51.2537 14.9153 51.3475 14.8444C51.4407 14.774 51.5196 14.681 51.5743 14.5723C51.6433 14.4352 51.6733 14.2689 51.6458 14.0872L50.9344 9.85981C50.9111 9.71387 50.9543 9.55892 51.0638 9.44897L53.9914 6.48935C54.1267 6.35805 54.2018 6.1953 54.2237 6.02967C54.2392 5.91178 54.2288 5.78992 54.1949 5.67626C54.1613 5.56329 54.1042 5.45811 54.0279 5.37195C53.92 5.25064 53.7694 5.16215 53.5835 5.13535L49.5632 4.54381C49.4134 4.53082 49.2735 4.43768 49.2031 4.28628L49.2037 4.28635Z" fill="#FFBF0E"/>
<path d="M68.8192 4.28635L67.0237 0.440954C66.9461 0.274509 66.824 0.154018 66.6842 0.0828832C66.5768 0.0281765 66.4605 0.000275158 66.3469 2.06206e-06C66.2322 -0.000271489 66.1155 0.0266717 66.0089 0.0808315C65.8713 0.150993 65.7502 0.270938 65.6709 0.440933L63.8758 4.28528C63.8128 4.41822 63.6906 4.51751 63.5398 4.53953L59.4939 5.13625C59.3163 5.161 59.1693 5.24539 59.0617 5.36246C58.9819 5.4493 58.9217 5.55557 58.8859 5.67018C58.8495 5.78616 58.8374 5.90966 58.8527 6.02934C58.8732 6.18908 58.9453 6.34773 59.0763 6.47956L61.9957 9.42798C62.1104 9.53056 62.172 9.69181 62.144 9.85853L61.4339 14.0754C61.4049 14.2502 61.4313 14.4149 61.5017 14.5628C61.5627 14.6824 61.6414 14.7769 61.7333 14.8471C61.8254 14.9175 61.9349 14.9673 62.0522 14.9887C62.1979 15.0155 62.3567 14.9957 62.51 14.916L66.1402 12.898C66.2652 12.8288 66.4198 12.8234 66.5537 12.898L70.1652 14.9056C70.3176 14.9901 70.4793 15.0131 70.6349 14.9874C70.7585 14.9651 70.8692 14.9153 70.9629 14.8444C71.0562 14.774 71.1351 14.681 71.1897 14.5723C71.2588 14.4352 71.2887 14.2689 71.2613 14.0872L70.5499 9.85981C70.5266 9.71387 70.5698 9.55892 70.6792 9.44897L73.6068 6.48935C73.7422 6.35805 73.8173 6.1953 73.8391 6.02967C73.8547 5.91178 73.8442 5.78992 73.8104 5.67626C73.7767 5.56329 73.7197 5.45811 73.6433 5.37195C73.5354 5.25064 73.3849 5.16215 73.199 5.13535L69.1786 4.54381C69.0289 4.53082 68.8889 4.43768 68.8186 4.28628L68.8192 4.28635Z" fill="#FFBF0E"/>
<path d="M88.4344 4.28635L86.639 0.440954C86.5613 0.274509 86.4393 0.154018 86.2994 0.0828832C86.192 0.0281765 86.0758 0.000275158 85.9621 2.06206e-06C85.8474 -0.000271489 85.7307 0.0266717 85.6241 0.0808315C85.4865 0.150993 85.3654 0.270938 85.2861 0.440933L83.491 4.28528C83.4281 4.41822 83.3058 4.51751 83.155 4.53953L79.1092 5.13625C78.9316 5.161 78.7845 5.24539 78.6769 5.36246C78.5971 5.4493 78.537 5.55557 78.5011 5.67018C78.4648 5.78616 78.4526 5.90966 78.4679 6.02934C78.4884 6.18908 78.5605 6.34773 78.6916 6.47956L81.6109 9.42798C81.7256 9.53056 81.7872 9.69181 81.7592 9.85853L81.0491 14.0754C81.0201 14.2502 81.0465 14.4149 81.1169 14.5628C81.178 14.6824 81.2566 14.7769 81.3485 14.8471C81.4406 14.9175 81.5501 14.9673 81.6674 14.9887C81.8131 15.0155 81.9719 14.9957 82.1252 14.916L85.7555 12.898C85.8804 12.8288 86.035 12.8234 86.1689 12.898L89.7805 14.9056C89.9328 14.9901 90.0945 15.0131 90.2501 14.9874C90.3737 14.9651 90.4844 14.9153 90.5782 14.8444C90.6714 14.774 90.7503 14.681 90.805 14.5723C90.874 14.4352 90.904 14.2689 90.8765 14.0872L90.1651 9.85981C90.1418 9.71387 90.185 9.55892 90.2945 9.44897L93.2221 6.48935C93.3575 6.35805 93.4325 6.1953 93.4544 6.02967C93.4699 5.91178 93.4595 5.78992 93.4256 5.67626C93.392 5.56329 93.335 5.45811 93.2586 5.37195C93.1507 5.25064 93.0001 5.16215 92.8142 5.13535L88.7939 4.54381C88.6441 4.53082 88.5042 4.43768 88.4338 4.28628L88.4344 4.28635Z" fill="#FFBF0E"/>
</svg>
