<svg width="18" height="20" viewBox="0 0 18 20" fill="none" xmlns="http://www.w3.org/2000/svg">
<path d="M9.31656 0.182616C11.8632 0.575227 13.5926 2.85425 13.1792 5.27294C12.7661 7.69186 10.3667 9.33449 7.82011 8.94188C5.27346 8.54942 3.54409 6.2704 3.95743 3.85155C4.37061 1.43279 6.76998 -0.209995 9.31656 0.182616Z" fill="#3D0659"/>
<path d="M17.0911 18.658C17.0905 18.8659 17.0032 19.0652 16.8484 19.2122C16.6936 19.3593 16.4837 19.4422 16.2649 19.4428H0.871867C0.653061 19.4422 0.443202 19.3593 0.288398 19.2122C0.133589 19.0652 0.0462917 18.8659 0.0456543 18.658C0.0456543 16.5111 0.943676 14.4521 2.54189 12.934C4.14023 11.4158 6.30803 10.563 8.5682 10.563C10.8284 10.563 12.9962 11.4158 14.5945 12.934C16.1927 14.4522 17.0907 16.5112 17.0907 18.658H17.0911Z" fill="#3D0659"/>
</svg>
